<svg width="57" height="45" viewBox="0 0 57 45" fill="none" xmlns="http://www.w3.org/2000/svg">
<path fill-rule="evenodd" clip-rule="evenodd" d="M54.33 19.1786C53.8497 16.1783 50.9755 14.7071 48.8786 13.6334C48.6195 13.4991 48.3685 13.3702 48.1283 13.2439C47.0245 12.6543 45.3378 11.7595 43.8859 10.9884C43.5297 12.0753 42.7956 12.9965 41.8348 13.607C43.3731 14.4203 45.3054 15.4467 46.5253 16.0994C46.7789 16.2336 47.0488 16.3731 47.3268 16.5152C48.9595 17.3521 50.8109 18.2996 51.0322 19.6813C51.0915 20.0445 50.9701 20.5051 50.8298 21.0393C50.7596 21.3104 50.6921 21.5789 50.6355 21.8526L53.909 22.5C53.9522 22.2789 54.0089 22.0605 54.0656 21.842C54.2572 21.1104 54.4947 20.1998 54.33 19.1786Z" fill="#171D21"/>
<path fill-rule="evenodd" clip-rule="evenodd" d="M32.3675 18.9616C31.8935 15.7929 29.0571 14.2391 26.9878 13.105C26.7294 12.9633 26.4817 12.8271 26.2474 12.6936C24.9877 11.9737 22.9556 10.8202 21.4029 9.94186C21.2378 11.1371 20.6785 12.1989 19.8716 12.9855C21.4136 13.8583 23.419 14.9951 24.6628 15.7095C24.9158 15.8512 25.1821 15.9986 25.4564 16.1487C27.0677 17.0326 28.8946 18.0332 29.113 19.4925C29.169 19.8761 29.0491 20.3625 28.9133 20.9268C28.8387 21.2381 28.7615 21.5494 28.7056 21.8635L31.9441 22.5C31.9867 22.2554 32.0479 22.0164 32.1065 21.7745C32.2956 21.0018 32.53 20.0429 32.3675 18.9616Z" fill="#171D21"/>
<path fill-rule="evenodd" clip-rule="evenodd" d="M19.8716 28.4954L17.6443 32.384L11.427 32.8052L11.3917 32.8613L15.8217 35.5623L14.0128 38.7209L0 30.18L1.80897 27.0186L10.3351 32.2184L10.3677 32.1594L8.36854 26.8333L10.5524 23.0233L12.6166 29.2422L19.8716 28.4954Z" fill="#171D21"/>
<path fill-rule="evenodd" clip-rule="evenodd" d="M23.3628 22.1928L22.0816 21.4181L22.0598 21.4571C22.2067 21.6968 22.3182 21.9671 22.3971 22.2624C22.476 22.5578 22.5141 22.8699 22.5059 23.1987C22.5005 23.5275 22.4542 23.8703 22.3672 24.2186C22.2829 24.5697 22.1442 24.9096 21.9537 25.2385C21.5865 25.871 21.1676 26.3391 20.6916 26.6401C20.2156 26.9438 19.7233 27.1249 19.2119 27.1863C18.7005 27.242 18.1864 27.1974 17.6642 27.0441C17.1419 26.8937 16.6469 26.6735 16.1763 26.3893L10.4587 22.9368L12.273 19.7991L17.2861 22.8281C17.5445 22.9841 17.8056 23.1151 18.0613 23.221C18.317 23.3241 18.57 23.377 18.8175 23.3826C19.065 23.3854 19.2935 23.3325 19.503 23.2182C19.7097 23.104 19.8974 22.9005 20.066 22.6107C20.3815 22.0674 20.4223 21.5324 20.1911 21.0057C19.9599 20.4818 19.5791 20.0583 19.046 19.7378L14.0519 16.7228L15.8553 13.6046L25.1009 19.1889L23.3628 22.1928Z" fill="#171D21"/>
<path fill-rule="evenodd" clip-rule="evenodd" d="M28.5275 4.42183L28.2904 4.81092C28.0868 5.14559 27.9 5.49387 27.7243 5.85032C27.5486 6.20948 27.4258 6.54687 27.3533 6.8625C27.2808 7.18085 27.278 7.47471 27.3422 7.7468C27.4091 8.0189 27.582 8.23385 27.8609 8.39439C28.0394 8.49778 28.2151 8.54676 28.3908 8.5386C28.5665 8.53043 28.7311 8.4869 28.8817 8.40527C29.0323 8.32908 29.1745 8.21752 29.3028 8.07332C29.4311 7.93183 29.5427 7.7849 29.6319 7.63797C30.0084 7.01759 30.12 6.4462 29.9694 5.91562C29.8216 5.38776 29.4479 4.94969 28.851 4.60685L28.5275 4.42183ZM21.0809 7.67606C20.8801 6.82441 20.8633 5.95915 21.0363 5.08301C21.2092 4.20687 21.5243 3.39059 21.9845 2.63418C22.4586 1.85599 22.9551 1.25466 23.4794 0.8302C24.0037 0.403014 24.5727 0.144525 25.1863 0.0465718C25.8026 -0.0513816 26.4692 0.00575784 27.1916 0.212549C27.9139 0.419339 28.706 0.770339 29.5706 1.26555L34.3481 4.01641L32.658 6.79992L31.6484 6.21764L31.6149 6.27478C31.8659 6.73462 31.9552 7.2652 31.8826 7.86652C31.8073 8.46513 31.6037 9.04469 31.2635 9.60248C31.0376 9.97252 30.7559 10.3262 30.4128 10.6636C30.0726 11.001 29.6877 11.2704 29.2582 11.4636C28.8315 11.6622 28.3629 11.7547 27.8553 11.7466C27.3477 11.7384 26.8123 11.5724 26.2545 11.2514C25.5684 10.8568 25.1277 10.3589 24.9297 9.75213C24.7345 9.14536 24.6954 8.48962 24.8153 7.78218C24.9381 7.07746 25.1751 6.34825 25.5265 5.59999C25.8779 4.85173 26.2572 4.14157 26.6644 3.47494L26.511 3.38787C26.0397 3.1185 25.599 3.07769 25.1807 3.27359C24.7624 3.46678 24.4109 3.79873 24.1265 4.26673C23.8643 4.70208 23.7053 5.1728 23.6495 5.68434C23.5966 6.19587 23.6161 6.67204 23.7109 7.11011L21.0809 7.67606Z" fill="#171D21"/>
<path fill-rule="evenodd" clip-rule="evenodd" d="M42.8807 29.5437L40.6535 33.4289L34.4361 33.8499L34.4008 33.9061L38.8309 36.6066L37.0219 39.7674L23.0092 31.2252L24.8181 28.0672L33.3442 33.2632L33.3768 33.2071L31.3777 27.8791L33.5615 24.0698L35.6258 30.2876L42.8807 29.5437Z" fill="#171D21"/>
<path fill-rule="evenodd" clip-rule="evenodd" d="M46.372 23.2385L45.0908 22.4667L45.069 22.5029C45.2132 22.7453 45.3275 23.0128 45.4063 23.3081C45.4852 23.6035 45.5233 23.9183 45.5151 24.2471C45.5097 24.5759 45.4635 24.9158 45.3764 25.2669C45.2921 25.6152 45.1534 25.9551 44.963 26.2839C44.5958 26.9164 44.1741 27.3845 43.7008 27.6882C43.2248 27.9919 42.7325 28.173 42.2211 28.2315C41.7125 28.29 41.1956 28.2426 40.6734 28.0922C40.1511 27.9389 39.6561 27.7188 39.1855 27.4346L33.4679 23.9824L35.2822 20.8478L40.2926 23.8765C40.5537 24.0326 40.8121 24.1635 41.0705 24.2666C41.3262 24.3697 41.5792 24.4254 41.8267 24.4282C42.0742 24.4338 42.3027 24.3781 42.5094 24.2638C42.7189 24.1524 42.9066 23.949 43.0752 23.6564C43.3908 23.1131 43.4316 22.5781 43.2003 22.0543C42.9691 21.5305 42.5883 21.107 42.0552 20.7865L37.0611 17.769L38.8645 14.6512L48.1101 20.2376L46.372 23.2385Z" fill="#171D21"/>
<path fill-rule="evenodd" clip-rule="evenodd" d="M51.0383 5.37971L50.8168 5.76367C50.6266 6.08897 50.4494 6.42761 50.2878 6.77957C50.1236 7.13153 50.0089 7.46217 49.9412 7.77147C49.8734 8.08344 49.8682 8.37141 49.9308 8.63805C49.9933 8.90469 50.1549 9.11533 50.4155 9.27265C50.5823 9.37397 50.7465 9.42197 50.9106 9.41397C51.0748 9.40597 51.2286 9.36331 51.3693 9.28331C51.51 9.20599 51.6403 9.09933 51.7628 8.95801C51.8827 8.81936 51.9843 8.67538 52.0703 8.52873C52.4221 7.92345 52.5264 7.36084 52.3856 6.84356C52.2449 6.32628 51.8983 5.89699 51.3406 5.56103L51.0383 5.37971ZM44.6032 8.56605C44.4129 7.73414 44.3999 6.88623 44.5615 6.02765C44.723 5.16907 45.0175 4.36915 45.4475 3.62789C45.8879 2.8653 46.3544 2.27603 46.8444 1.86007C47.3317 1.44144 47.8659 1.18814 48.4392 1.09215C49.0152 0.996157 49.638 1.05215 50.313 1.2548C50.9879 1.45744 51.728 1.80141 52.5359 2.28669L57 4.98242L55.4208 7.70748L54.4774 7.13953L54.4461 7.19553C54.6807 7.64615 54.7641 8.1661 54.6937 8.75537C54.626 9.34198 54.4331 9.90992 54.1178 10.4565C53.9067 10.8192 53.6435 11.1658 53.3229 11.4964C53.005 11.8271 52.6454 12.091 52.244 12.2803C51.8453 12.475 51.4075 12.5656 50.9332 12.5576C50.4589 12.5497 49.9586 12.387 49.4374 12.0724C48.7963 11.6857 48.3845 11.1978 48.1995 10.6032C48.0171 10.0086 47.9806 9.36597 48.0926 8.67271C48.2073 7.98211 48.4262 7.26752 48.7572 6.53426C49.0855 5.801 49.44 5.10507 49.8204 4.45181L49.6745 4.36648C49.2367 4.10251 48.8249 4.06251 48.434 4.25449C48.0431 4.44381 47.7148 4.76911 47.4489 5.23039C47.2014 5.65435 47.0554 6.11564 47.0033 6.61692C46.9538 7.1182 46.972 7.58482 47.0607 8.01411L44.6032 8.56605Z" fill="#171D21"/>
<path fill-rule="evenodd" clip-rule="evenodd" d="M50.0335 25.1163C48.2701 33.0811 44.7924 38.2314 39.6959 40.4181C31.3424 44.0068 20.8194 38.7997 18.4619 37.525L16.7339 40.4046C17.835 41.0108 20.6777 42.4722 24.3598 43.59C27.4586 44.5291 30.4266 45 33.1902 45C36.0465 45 38.682 44.4993 41.0204 43.498C47.1881 40.8538 51.3308 34.8944 53.3394 25.782L50.0335 25.1163Z" fill="#171D21"/>
<path d="M16.4725 13.0814C18.6386 13.0814 20.3945 11.3244 20.3945 9.15696C20.3945 6.98957 18.6386 5.23254 16.4725 5.23254C14.3064 5.23254 12.5505 6.98957 12.5505 9.15696C12.5505 11.3244 14.3064 13.0814 16.4725 13.0814Z" fill="#171D21"/>
<path d="M38.9587 13.0814C41.1248 13.0814 42.8807 11.3244 42.8807 9.15696C42.8807 6.98957 41.1248 5.23254 38.9587 5.23254C36.7926 5.23254 35.0367 6.98957 35.0367 9.15696C35.0367 11.3244 36.7926 13.0814 38.9587 13.0814Z" fill="#171D21"/>
</svg>
